<svg width="373" height="373" viewBox="0 0 373 373" fill="none" xmlns="http://www.w3.org/2000/svg">
<path fill-rule="evenodd" clip-rule="evenodd" d="M372 186.5C372 288.949 288.949 372 186.5 372C84.0512 372 1 288.949 1 186.5C1 97.0557 64.3049 22.3971 148.554 4.88441C80.9638 22.1952 31 83.5127 31 156.5C31 242.933 101.067 313 187.5 313C273.933 313 344 242.933 344 156.5C344 87.1255 298.86 28.2939 236.349 7.77448C314.588 29.5499 372 101.32 372 186.5ZM187.991 1.00587C188.982 1.01367 189.971 1.02924 190.958 1.05252C221.022 2.33964 245 27.1196 245 57.5C245 88.7041 219.704 114 188.5 114C157.296 114 132 88.7041 132 57.5C132 27.0337 156.114 2.19957 186.297 1.04217C186.86 1.02457 187.425 1.01245 187.991 1.00587ZM198.375 0.371952C295.843 6.49639 373 87.4877 373 186.5C373 289.501 289.501 373 186.5 373C83.4989 373 0 289.501 0 186.5C0 83.4989 83.4989 0 186.5 0C186.674 0 186.848 0.000238355 187.022 0.000714757C187.181 0.000238365 187.341 0 187.5 0C187.677 0 187.854 0.000294737 188.032 0.000883748C188.188 0.000294758 188.344 0 188.5 0L188.772 0.000296981L189 0C189.886 0 190.768 0.0133897 191.648 0.0399777C193.068 0.0760983 194.482 0.136597 195.89 0.22107C196.72 0.264914 197.548 0.315225 198.375 0.371952ZM187.5 312C273.38 312 343 242.38 343 156.5C343 83.4072 292.569 22.0932 224.605 5.45447C274.077 20.8298 310 66.9698 310 121.5C310 188.603 255.603 243 188.5 243C121.397 243 67 188.603 67 121.5C67 64.5705 106.154 16.7858 159.002 3.60553C86.7321 16.991 32 80.3538 32 156.5C32 242.38 101.62 312 187.5 312ZM309 121.5C309 188.05 255.05 242 188.5 242C121.95 242 68 188.05 68 121.5C68 62.5868 110.278 13.5481 166.149 3.06892C129.744 13.0775 103 46.4155 103 86C103 133.496 141.504 172 189 172C236.496 172 275 133.496 275 86C275 47.2534 249.376 14.4916 214.15 3.73565C268.378 15.4916 309 63.7519 309 121.5ZM189 171C235.944 171 274 132.944 274 86C274 44.8435 244.749 10.5189 205.903 2.68072C229.152 10.0549 246 31.81 246 57.5C246 89.2564 220.256 115 188.5 115C156.744 115 131 89.2564 131 57.5C131 32.5113 146.94 11.2456 169.207 3.3166C131.809 12.236 104 45.8704 104 86C104 132.944 142.056 171 189 171Z" fill="url(#paint0_linear_408_405)"/>
<defs>
<linearGradient id="paint0_linear_408_405" x1="-4.31724e-06" y1="140.209" x2="373" y2="140.209" gradientUnits="userSpaceOnUse">
<stop stop-color="#058999"/>
<stop offset="1" stop-color="#FF827D"/>
</linearGradient>
</defs>
</svg>
