<svg width="373" height="373" viewBox="0 0 373 373" fill="none" xmlns="http://www.w3.org/2000/svg">
<path fill-rule="evenodd" clip-rule="evenodd" d="M370.941 206.442C370.086 214.437 368.724 222.281 366.886 229.939C345.865 181.055 273.071 145 186.5 145C99.9291 145 27.1349 181.055 6.11413 229.939C4.27649 222.281 2.91394 214.437 2.05937 206.442C11.9946 131.575 90.5995 73 186.5 73C282.401 73 361.005 131.575 370.941 206.442ZM317.854 179.243C341.205 193.517 358.26 211.512 366.486 231.573C364.276 240.428 361.429 249.031 357.997 257.33C329.493 227.733 263.437 207 186.5 207C109.563 207 43.5065 227.733 15.0027 257.33C11.571 249.031 8.72436 240.428 6.51402 231.573C14.7396 211.512 31.7945 193.517 55.1461 179.243C88.7147 158.724 135.153 146 186.5 146C237.847 146 284.285 158.724 317.854 179.243ZM15.4226 258.338C24.7406 248.549 38.2577 239.689 55.0312 232.224C88.6256 217.273 135.106 208 186.5 208C237.894 208 284.374 217.273 317.969 232.224C334.742 239.689 348.259 248.549 357.577 258.338C351.88 271.888 344.621 284.62 336.024 296.307C302.018 284.587 247.702 277 186.5 277C125.298 277 70.982 284.587 36.9763 296.307C28.3792 284.62 21.1195 271.888 15.4226 258.338ZM318.126 292.027C324.349 293.629 330.123 295.341 335.4 297.15C323.274 313.441 308.538 327.674 291.81 339.229C261.843 337.192 225.575 336 186.5 336C147.425 336 111.157 337.192 81.1896 339.229C64.4622 327.674 49.7259 313.441 37.6001 297.15C42.8774 295.341 48.6514 293.629 54.8738 292.027C88.521 283.367 135.058 278 186.5 278C237.942 278 284.479 283.367 318.126 292.027ZM79.596 339.339C63.1151 327.79 48.5879 313.643 36.6089 297.492C33.6919 298.511 30.9312 299.559 28.3352 300.635C39.8156 315.699 54.5172 329.004 71.6745 339.921C74.2611 339.72 76.9025 339.526 79.596 339.339ZM73.0933 340.815C75.6471 340.62 78.2532 340.432 80.9092 340.251C99.2757 352.888 120.019 362.32 142.332 367.739C116.75 362.705 93.2649 353.397 73.0933 340.815ZM70.0292 340.05C53.172 329.16 38.7083 315.956 27.3763 301.037C23.7832 302.559 20.5179 304.135 17.6039 305.758C26.823 318.083 39.5868 329.246 55.1461 338.757C56.3896 339.517 57.6508 340.266 58.9293 341.005C62.5002 340.673 66.203 340.354 70.0292 340.05ZM60.4432 341.87C63.9803 341.547 67.6438 341.238 71.4253 340.944C92.1179 354.054 116.331 363.709 142.732 368.832C111.451 364.218 83.2767 354.769 60.4432 341.87ZM57.2197 341.166C40.3667 331.256 26.5554 319.427 16.7266 306.254C16.1974 306.558 15.6805 306.863 15.1759 307.171C12.3843 308.869 9.99844 310.599 8.02413 312.35C10.0598 315.515 12.52 318.608 15.381 321.618C22.6093 329.224 32.3722 336.27 44.2277 342.538C48.3233 342.059 52.6602 341.601 57.2197 341.166ZM45.8075 343.362C48.6667 343.036 51.6406 342.719 54.7233 342.414C56.0314 342.284 57.359 342.156 58.7054 342.03C81.0488 354.884 108.581 364.406 139.177 369.298C106.824 365.522 77.9331 357.969 55.0312 347.776C51.8363 346.354 48.7596 344.882 45.8075 343.362ZM42.4914 342.744C26.5362 334.126 14.4112 324.05 7.27555 313.034C3.1135 316.951 1 320.972 1 325C1 331.07 5.7994 337.124 15.1759 342.829C16.935 343.9 18.845 344.952 20.8994 345.982C26.9561 344.826 34.2075 343.741 42.4914 342.744ZM22.3987 346.719C28.5066 345.595 35.7695 344.539 44.0358 343.567C69.0647 356.738 103.149 366.391 142.012 370.624C108.457 368.507 78.4901 364.051 54.8738 357.973C41.9807 354.654 31.0133 350.861 22.3987 346.719ZM19.3087 346.293C6.94831 339.877 0 332.647 0 325C0 320.558 2.34389 316.258 6.73068 312.176C2.34389 305.117 0 297.68 0 290C0 285.556 0.784727 281.194 2.29587 276.939C0.784727 271.095 0 265.104 0 259C0 253.663 0.60009 248.411 1.76128 243.268C0.60009 236.48 0 229.546 0 222.5C0 217.069 0.356491 211.705 1.05162 206.423C0.356491 199.877 0 193.23 0 186.5C0 83.4989 83.4989 0 186.5 0C289.501 0 373 83.4989 373 186.5C373 193.23 372.644 199.877 371.948 206.423C372.644 211.705 373 217.069 373 222.5C373 229.546 372.4 236.48 371.239 243.268C372.4 248.411 373 253.663 373 259C373 265.104 372.215 271.095 370.704 276.939C372.215 281.194 373 285.556 373 290C373 297.68 370.656 305.117 366.269 312.176C370.656 316.258 373 320.558 373 325C373 332.647 366.052 339.877 353.691 346.293C366.052 348.766 373 351.553 373 354.5C373 364.717 289.501 373 186.5 373C83.4989 373 0 364.717 0 354.5C0 351.553 6.94831 348.766 19.3087 346.293ZM138.165 371.372C106.119 370.521 77.484 368.844 54.7233 366.586C37.8634 364.914 24.2582 362.926 14.8844 360.727C10.1895 359.626 6.61003 358.485 4.22522 357.329C3.03029 356.749 2.18987 356.192 1.66163 355.676C1.13451 355.161 1 354.772 1 354.5C1 354.228 1.13451 353.839 1.66163 353.324C2.18987 352.808 3.03029 352.251 4.22522 351.671C6.61003 350.515 10.1895 349.374 14.8844 348.273C16.6872 347.85 18.6465 347.435 20.7554 347.028C44.5856 358.881 87.0473 367.852 138.165 371.372ZM234.835 371.372C266.881 370.521 295.516 368.844 318.277 366.586C335.137 364.914 348.742 362.926 358.116 360.727C362.811 359.626 366.39 358.485 368.775 357.329C369.97 356.749 370.81 356.192 371.338 355.676C371.865 355.161 372 354.772 372 354.5C372 354.228 371.865 353.839 371.338 353.324C370.81 352.808 369.97 352.251 368.775 351.671C366.39 350.515 362.811 349.374 358.116 348.273C356.313 347.85 354.353 347.435 352.245 347.028C328.414 358.881 285.953 367.852 234.835 371.372ZM352.101 345.982C354.155 344.952 356.065 343.9 357.824 342.829C367.201 337.124 372 331.07 372 325C372 320.972 369.887 316.951 365.724 313.034C358.589 324.05 346.464 334.126 330.509 342.744C338.792 343.741 346.044 344.826 352.101 345.982ZM328.964 343.567C337.23 344.539 344.493 345.595 350.601 346.719C341.987 350.861 331.019 354.654 318.126 357.973C294.51 364.051 264.543 368.507 230.988 370.624C269.851 366.391 303.935 356.738 328.964 343.567ZM328.772 342.538C340.628 336.27 350.391 329.224 357.619 321.618C360.48 318.608 362.94 315.515 364.976 312.35C363.002 310.599 360.616 308.869 357.824 307.171C357.32 306.863 356.803 306.558 356.273 306.254C346.445 319.427 332.633 331.256 315.78 341.166C320.34 341.601 324.677 342.059 328.772 342.538ZM314.295 342.03C315.641 342.156 316.969 342.284 318.277 342.414C321.359 342.719 324.333 343.036 327.192 343.362C324.24 344.882 321.164 346.354 317.969 347.776C295.067 357.969 266.176 365.522 233.823 369.298C264.419 364.406 291.951 354.884 314.295 342.03ZM314.071 341.005C315.349 340.266 316.61 339.517 317.854 338.757C333.413 329.246 346.177 318.083 355.396 305.758C352.482 304.135 349.217 302.559 345.624 301.037C334.292 315.956 319.828 329.16 302.971 340.05C306.797 340.354 310.5 340.673 314.071 341.005ZM301.575 340.944C305.356 341.238 309.02 341.547 312.557 341.87C289.723 354.769 261.549 364.218 230.268 368.832C256.669 363.709 280.882 354.054 301.575 340.944ZM301.326 339.921C318.483 329.004 333.184 315.699 344.665 300.635C342.069 299.559 339.308 298.511 336.391 297.492C324.412 313.643 309.885 327.79 293.404 339.339C296.098 339.526 298.739 339.72 301.326 339.921ZM292.091 340.251C294.747 340.432 297.353 340.62 299.907 340.815C279.735 353.397 256.25 362.705 230.668 367.739C252.981 362.32 273.724 352.888 292.091 340.251ZM290.477 340.142C260.82 360.252 225.032 372 186.5 372C147.968 372 112.18 360.252 82.5227 340.142C112.215 338.158 147.99 337 186.5 337C225.01 337 260.785 338.158 290.477 340.142ZM7.48452 311.494C9.84784 309.415 12.7427 307.396 16.1287 305.444C9.96837 297.014 5.43364 288.042 2.76812 278.678C1.60051 282.387 1 286.167 1 290C1 297.407 3.24183 304.614 7.48452 311.494ZM17.0041 304.948C19.9185 303.319 23.177 301.739 26.7558 300.214C19.0587 289.933 12.8428 278.849 8.34639 267.155C6.23326 270.362 4.55698 273.643 3.34241 276.984C5.91729 286.77 10.5609 296.15 17.0041 304.948ZM27.7119 299.811C30.3109 298.728 33.0725 297.674 35.988 296.65C27.511 285.087 20.3345 272.51 14.6738 259.136C12.5602 261.424 10.6771 263.759 9.03467 266.135C13.5449 278.057 19.855 289.351 27.7119 299.811ZM372 290C372 297.407 369.758 304.614 365.515 311.494C363.152 309.415 360.257 307.396 356.871 305.444C363.032 297.014 367.566 288.042 370.232 278.678C371.399 282.387 372 286.167 372 290ZM369.658 276.984C367.083 286.77 362.439 296.15 355.996 304.948C353.082 303.319 349.823 301.739 346.244 300.214C353.941 289.933 360.157 278.849 364.654 267.155C366.767 270.362 368.443 273.643 369.658 276.984ZM337.012 296.65C339.927 297.674 342.689 298.728 345.288 299.811C353.145 289.352 359.455 278.057 363.965 266.135C362.323 263.759 360.44 261.424 358.326 259.136C352.666 272.51 345.489 285.087 337.012 296.65ZM14.2491 258.124C10.8971 250.072 8.09323 241.735 5.88412 233.158C4.60459 236.484 3.56693 239.864 2.78248 243.292C4.0655 250.714 6.02534 257.963 8.61052 264.997C10.2677 262.66 12.151 260.367 14.2491 258.124ZM7.91118 266.006C5.47173 259.477 3.56719 252.76 2.23866 245.889C1.42023 250.193 1 254.568 1 259C1 264.528 1.65389 269.969 2.91892 275.293C4.18902 272.132 5.86124 269.033 7.91118 266.006ZM370.081 275.293C371.346 269.969 372 264.528 372 259C372 254.568 371.58 250.193 370.761 245.889C369.433 252.76 367.528 259.477 365.089 266.006C367.139 269.033 368.811 272.132 370.081 275.293ZM364.389 264.997C366.975 257.963 368.935 250.714 370.218 243.292C369.433 239.864 368.395 236.484 367.116 233.158C364.907 241.735 362.103 250.072 358.751 258.124C360.849 260.367 362.732 262.66 364.389 264.997ZM1 222.5C1 228.682 1.4665 234.778 2.37287 240.766C3.19724 237.631 4.23066 234.539 5.46412 231.496C3.78651 224.724 2.47894 217.806 1.56411 210.765C1.19035 214.638 1 218.551 1 222.5ZM367.536 231.496C368.769 234.539 369.803 237.631 370.627 240.766C371.534 234.778 372 228.682 372 222.5C372 218.551 371.81 214.638 371.436 210.765C370.521 217.806 369.213 224.724 367.536 231.496ZM371.336 202.308C359.111 128.737 281.016 72 186.5 72C91.9839 72 13.8892 128.737 1.6641 202.308C1.22435 197.097 1 191.825 1 186.5C1 84.0512 84.0512 1 186.5 1C288.949 1 372 84.0512 372 186.5C372 191.825 371.776 197.097 371.336 202.308Z" fill="url(#paint0_linear_419_399)"/>
<defs>
<linearGradient id="paint0_linear_419_399" x1="-4.31724e-06" y1="140.209" x2="373" y2="140.209" gradientUnits="userSpaceOnUse">
<stop stop-color="#058999"/>
<stop offset="1" stop-color="#FF827D"/>
</linearGradient>
</defs>
</svg>
