<svg width="301" height="280" viewBox="0 0 301 280" fill="none" xmlns="http://www.w3.org/2000/svg">
<path fill-rule="evenodd" clip-rule="evenodd" d="M288.237 64.3729C295.744 58.8358 299.7 52.8882 299.7 46.8C299.7 40.7118 295.744 34.7642 288.237 29.2271C280.747 23.7017 269.857 18.6921 256.328 14.4711C229.279 6.03203 191.864 0.8 150.5 0.8C109.136 0.8 71.7205 6.03203 44.6723 14.4711C31.1433 18.6921 20.2532 23.7017 12.7626 29.2271C5.25625 34.7642 1.3 40.7118 1.3 46.8C1.3 52.8882 5.25625 58.8358 12.7626 64.3729C15.1773 66.154 17.9452 67.8816 21.0409 69.5464C47.0903 55.6978 95.315 46.4 150.5 46.4C205.685 46.4 253.91 55.6978 279.959 69.5464C283.055 67.8816 285.823 66.154 288.237 64.3729ZM44.6723 60.8711C35.9019 63.6074 28.2405 66.6752 21.8954 70C28.2405 73.3248 35.9019 76.3926 44.6723 79.1289C71.7072 87.5638 109.1 92.7948 150.439 92.8H150.5H150.561C191.9 92.7948 229.293 87.5638 256.328 79.1289C265.098 76.3926 272.759 73.3248 279.105 70C272.759 66.6752 265.098 63.6074 256.328 60.8711C229.279 52.432 191.864 47.2 150.5 47.2C109.136 47.2 71.7205 52.432 44.6723 60.8711ZM150.571 93.6L150.5 93.6L150.429 93.6C109.094 93.6059 71.7051 98.8368 44.6723 107.271C35.9019 110.007 28.2405 113.075 21.8954 116.4C28.2405 119.725 35.9019 122.793 44.6723 125.529C71.7205 133.968 109.136 139.2 150.5 139.2C191.864 139.2 229.279 133.968 256.328 125.529C265.098 122.793 272.759 119.725 279.105 116.4C272.759 113.075 265.098 110.007 256.328 107.271C229.295 98.8368 191.906 93.6059 150.571 93.6ZM21.0409 116.854C43.9382 129.026 83.969 137.683 130.8 139.6C83.969 141.517 43.9382 150.174 21.0409 162.346C17.9452 160.682 15.1773 158.954 12.7626 157.173C5.25625 151.636 1.3 145.688 1.3 139.6C1.3 133.512 5.25625 127.564 12.7626 122.027C15.1773 120.246 17.9452 118.518 21.0409 116.854ZM44.6723 153.671C35.9019 156.407 28.2405 159.475 21.8954 162.8C28.2405 166.125 35.9019 169.193 44.6723 171.929C71.7205 180.368 109.136 185.6 150.5 185.6C191.864 185.6 229.279 180.368 256.328 171.929C265.098 169.193 272.759 166.125 279.105 162.8C272.759 159.475 265.098 156.407 256.328 153.671C229.279 145.232 191.864 140 150.5 140C109.136 140 71.7205 145.232 44.6723 153.671ZM0.5 139.6C0.5 148.042 7.66399 155.962 20.1986 162.8C7.66399 169.638 0.5 177.558 0.5 186C0.5 194.442 7.66399 202.362 20.1986 209.2C7.66399 216.038 0.5 223.958 0.5 232.4C0.5 258.247 67.6573 279.2 150.5 279.2C233.343 279.2 300.5 258.247 300.5 232.4C300.5 223.958 293.336 216.038 280.801 209.2C293.336 202.362 300.5 194.442 300.5 186C300.5 177.558 293.336 169.638 280.801 162.8C293.336 155.962 300.5 148.042 300.5 139.6C300.5 131.158 293.336 123.238 280.801 116.4C293.336 109.562 300.5 101.642 300.5 93.2C300.5 84.7581 293.336 76.8383 280.801 70C293.336 63.1617 300.5 55.2419 300.5 46.8C300.5 20.9531 233.343 0 150.5 0C67.6573 0 0.5 20.9531 0.5 46.8C0.5 55.2419 7.66398 63.1617 20.1986 70C7.66398 76.8383 0.5 84.7581 0.5 93.2C0.5 101.642 7.66399 109.562 20.1986 116.4C7.66399 123.238 0.5 131.158 0.5 139.6ZM279.959 208.746C283.055 207.082 285.823 205.354 288.237 203.573C295.744 198.036 299.7 192.088 299.7 186C299.7 179.912 295.744 173.964 288.237 168.427C285.823 166.646 283.055 164.918 279.959 163.254C257.062 175.426 217.031 184.083 170.2 186C217.031 187.917 257.062 196.574 279.959 208.746ZM150.5 186.4C191.864 186.4 229.279 191.632 256.328 200.071C265.098 202.807 272.759 205.875 279.105 209.2C272.759 212.525 265.098 215.593 256.328 218.329C229.279 226.768 191.864 232 150.5 232C109.136 232 71.7205 226.768 44.6723 218.329C35.9019 215.593 28.2406 212.525 21.8954 209.2C28.2406 205.875 35.9019 202.807 44.6723 200.071C71.7205 191.632 109.136 186.4 150.5 186.4ZM130.8 186C83.9689 184.083 43.9382 175.426 21.0409 163.254C17.9452 164.918 15.1773 166.646 12.7626 168.427C5.25625 173.964 1.3 179.912 1.3 186C1.3 192.088 5.25625 198.036 12.7626 203.573C15.1773 205.354 17.9452 207.082 21.0409 208.746C43.9382 196.574 83.969 187.917 130.8 186ZM21.0409 209.654C47.0903 223.502 95.315 232.8 150.5 232.8C205.685 232.8 253.91 223.502 279.959 209.654C283.055 211.318 285.823 213.046 288.237 214.827C295.744 220.364 299.7 226.312 299.7 232.4C299.7 238.488 295.744 244.436 288.237 249.973C280.747 255.498 269.857 260.508 256.328 264.729C229.279 273.168 191.864 278.4 150.5 278.4C109.136 278.4 71.7205 273.168 44.6723 264.729C31.1433 260.508 20.2532 255.498 12.7626 249.973C5.25625 244.436 1.3 238.488 1.3 232.4C1.3 226.312 5.25625 220.364 12.7626 214.827C15.1773 213.046 17.9452 211.318 21.0409 209.654ZM288.237 157.173C285.823 158.954 283.055 160.682 279.959 162.346C257.062 150.174 217.031 141.517 170.2 139.6C217.031 137.683 257.062 129.026 279.959 116.854C283.055 118.518 285.823 120.246 288.237 122.027C295.744 127.564 299.7 133.512 299.7 139.6C299.7 145.688 295.744 151.636 288.237 157.173ZM279.959 115.946C257.062 103.774 217.031 95.1168 170.2 93.2C217.031 91.2832 257.062 82.6264 279.959 70.4536C283.055 72.1184 285.823 73.8459 288.237 75.6271C295.744 81.1642 299.7 87.1118 299.7 93.2C299.7 99.2881 295.744 105.236 288.237 110.773C285.823 112.554 283.055 114.282 279.959 115.946ZM21.0409 115.946C43.9382 103.774 83.9689 95.1168 130.8 93.2C83.9689 91.2832 43.9382 82.6264 21.0409 70.4536C17.9452 72.1184 15.1773 73.8459 12.7626 75.6271C5.25625 81.1642 1.3 87.1118 1.3 93.2C1.3 99.2881 5.25625 105.236 12.7626 110.773C15.1773 112.554 17.9452 114.282 21.0409 115.946Z" fill="url(#paint0_linear_136_96)"/>
<defs>
<linearGradient id="paint0_linear_136_96" x1="0.499997" y1="104.95" x2="300.5" y2="104.95" gradientUnits="userSpaceOnUse">
<stop stop-color="#058999"/>
<stop offset="1" stop-color="#FF827D"/>
</linearGradient>
</defs>
</svg>
