<svg width="375" height="697" viewBox="0 0 375 697" fill="none" xmlns="http://www.w3.org/2000/svg">
<path fill-rule="evenodd" clip-rule="evenodd" d="M359.672 80.4661C369.055 73.5447 374 66.1102 374 58.5C374 50.8898 369.055 43.4553 359.672 36.5339C350.309 29.6271 336.696 23.3651 319.785 18.0889C285.974 7.54004 239.204 1 187.5 1C135.796 1 89.0257 7.54004 55.2153 18.0889C38.3042 23.3651 24.6915 29.6271 15.3283 36.5339C5.94531 43.4553 1 50.8898 1 58.5C1 66.1102 5.94531 73.5447 15.3283 80.4661C18.3466 82.6926 21.8065 84.852 25.6761 86.933C58.2379 69.6223 118.519 58 187.5 58C256.481 58 316.762 69.6223 349.324 86.933C353.194 84.852 356.653 82.6926 359.672 80.4661ZM55.2153 76.0889C44.2524 79.5093 34.6757 83.344 26.7442 87.5C34.6757 91.656 44.2524 95.4907 55.2153 98.9111C89.0257 109.46 135.796 116 187.5 116C239.204 116 285.974 109.46 319.785 98.9111C330.748 95.4907 340.324 91.656 348.256 87.5C340.324 83.344 330.748 79.5093 319.785 76.0889C285.974 65.54 239.204 59 187.5 59C135.796 59 89.0257 65.54 55.2153 76.0889ZM162.875 116.5C104.336 114.104 54.2978 103.283 25.6761 88.067C21.8065 90.148 18.3466 92.3074 15.3283 94.5339C5.94531 101.455 1 108.89 1 116.5C1 124.11 5.94531 131.545 15.3283 138.466C18.3466 140.693 21.8065 142.852 25.6761 144.933C54.2978 129.717 104.336 118.896 162.875 116.5ZM26.7442 145.5C34.6757 141.344 44.2524 137.509 55.2153 134.089C89.0257 123.54 135.796 117 187.5 117C239.204 117 285.974 123.54 319.785 134.089C330.748 137.509 340.324 141.344 348.256 145.5C340.324 149.656 330.748 153.491 319.785 156.911C285.974 167.46 239.204 174 187.5 174C135.796 174 89.0257 167.46 55.2153 156.911C44.2524 153.491 34.6757 149.656 26.7442 145.5ZM25.6761 146.067C54.2978 161.283 104.336 172.104 162.875 174.5C104.336 176.896 54.2978 187.717 25.6761 202.933C21.8065 200.852 18.3466 198.693 15.3283 196.466C5.94531 189.545 1 182.11 1 174.5C1 166.89 5.94531 159.455 15.3283 152.534C18.3466 150.307 21.8065 148.148 25.6761 146.067ZM55.2153 192.089C44.2524 195.509 34.6757 199.344 26.7442 203.5C34.6757 207.656 44.2524 211.491 55.2153 214.911C89.0257 225.46 135.796 232 187.5 232C239.204 232 285.974 225.46 319.785 214.911C330.748 211.491 340.324 207.656 348.256 203.5C340.324 199.344 330.748 195.509 319.785 192.089C285.974 181.54 239.204 175 187.5 175C135.796 175 89.0257 181.54 55.2153 192.089ZM162.875 232.5C104.336 230.104 54.2978 219.283 25.6761 204.067C21.8065 206.148 18.3466 208.307 15.3283 210.534C5.94531 217.455 1 224.89 1 232.5C1 240.11 5.94531 247.545 15.3283 254.466C18.3466 256.693 21.8065 258.852 25.6761 260.933C54.2978 245.717 104.336 234.896 162.875 232.5ZM26.7442 261.5C34.6757 257.344 44.2524 253.509 55.2153 250.089C89.0257 239.54 135.796 233 187.5 233C239.204 233 285.974 239.54 319.785 250.089C330.748 253.509 340.324 257.344 348.256 261.5C340.324 265.656 330.748 269.491 319.785 272.911C285.974 283.46 239.204 290 187.5 290C135.796 290 89.0257 283.46 55.2153 272.911C44.2524 269.491 34.6757 265.656 26.7442 261.5ZM25.6761 262.067C54.2978 277.283 104.336 288.104 162.875 290.5C104.336 292.896 54.2978 303.717 25.6761 318.933C21.8065 316.852 18.3466 314.693 15.3283 312.466C5.94531 305.545 1 298.11 1 290.5C1 282.89 5.94531 275.455 15.3283 268.534C18.3466 266.307 21.8065 264.148 25.6761 262.067ZM55.2153 308.089C44.2524 311.509 34.6757 315.344 26.7442 319.5C34.6757 323.656 44.2524 327.491 55.2153 330.911C89.0257 341.46 135.796 348 187.5 348C239.204 348 285.974 341.46 319.785 330.911C330.748 327.491 340.324 323.656 348.256 319.5C340.324 315.344 330.748 311.509 319.785 308.089C285.974 297.54 239.204 291 187.5 291C135.796 291 89.0257 297.54 55.2153 308.089ZM162.875 348.5C104.336 346.104 54.2978 335.283 25.6761 320.067C21.8065 322.148 18.3466 324.307 15.3283 326.534C5.94531 333.455 1 340.89 1 348.5C1 356.11 5.94531 363.545 15.3283 370.466C18.3466 372.693 21.8065 374.852 25.6761 376.933C54.2978 361.717 104.336 350.896 162.875 348.5ZM26.7442 377.5C34.6757 373.344 44.2524 369.509 55.2153 366.089C89.0257 355.54 135.796 349 187.5 349C239.204 349 285.974 355.54 319.785 366.089C330.748 369.509 340.324 373.344 348.256 377.5C340.324 381.656 330.748 385.491 319.785 388.911C285.974 399.46 239.204 406 187.5 406C135.796 406 89.0257 399.46 55.2153 388.911C44.2524 385.491 34.6757 381.656 26.7442 377.5ZM25.6761 378.067C54.2978 393.283 104.336 404.104 162.875 406.5C104.336 408.896 54.2978 419.717 25.6761 434.933C21.8065 432.852 18.3466 430.693 15.3283 428.466C5.94531 421.545 1 414.11 1 406.5C1 398.89 5.94531 391.455 15.3283 384.534C18.3466 382.307 21.8065 380.148 25.6761 378.067ZM55.2153 424.089C44.2524 427.509 34.6757 431.344 26.7442 435.5C34.6757 439.656 44.2524 443.491 55.2153 446.911C89.0257 457.46 135.796 464 187.5 464C239.204 464 285.974 457.46 319.785 446.911C330.748 443.491 340.324 439.656 348.256 435.5C340.324 431.344 330.748 427.509 319.785 424.089C285.974 413.54 239.204 407 187.5 407C135.796 407 89.0257 413.54 55.2153 424.089ZM162.875 464.5C104.336 462.104 54.2978 451.283 25.6761 436.067C21.8065 438.148 18.3466 440.307 15.3283 442.534C5.94531 449.455 1 456.89 1 464.5C1 472.11 5.94531 479.545 15.3283 486.466C18.3466 488.693 21.8065 490.852 25.6761 492.933C54.2978 477.717 104.336 466.896 162.875 464.5ZM26.7442 493.5C34.6757 489.344 44.2524 485.509 55.2153 482.089C89.0257 471.54 135.796 465 187.5 465C239.204 465 285.974 471.54 319.785 482.089C330.748 485.509 340.324 489.344 348.256 493.5C340.324 497.656 330.748 501.491 319.785 504.911C285.974 515.46 239.204 522 187.5 522C135.796 522 89.0257 515.46 55.2153 504.911C44.2524 501.491 34.6757 497.656 26.7442 493.5ZM25.6761 494.067C54.2978 509.283 104.336 520.104 162.875 522.5C104.336 524.896 54.2978 535.717 25.6761 550.933C21.8065 548.852 18.3466 546.693 15.3283 544.466C5.94531 537.545 1 530.11 1 522.5C1 514.89 5.94531 507.455 15.3283 500.534C18.3466 498.307 21.8065 496.148 25.6761 494.067ZM55.2153 540.089C44.2524 543.509 34.6757 547.344 26.7442 551.5C34.6757 555.656 44.2524 559.491 55.2153 562.911C89.0257 573.46 135.796 580 187.5 580C239.204 580 285.974 573.46 319.785 562.911C330.748 559.491 340.324 555.656 348.256 551.5C340.324 547.344 330.748 543.509 319.785 540.089C285.974 529.54 239.204 523 187.5 523C135.796 523 89.0257 529.54 55.2153 540.089ZM162.875 580.5C104.336 578.104 54.2978 567.283 25.6761 552.067C21.8065 554.148 18.3466 556.307 15.3283 558.534C5.94531 565.455 1 572.89 1 580.5C1 588.11 5.94531 595.545 15.3283 602.466C18.3466 604.693 21.8065 606.852 25.6761 608.933C54.2978 593.717 104.336 582.896 162.875 580.5ZM26.7442 609.5C34.6757 605.344 44.2524 601.509 55.2153 598.089C89.0257 587.54 135.796 581 187.5 581C239.204 581 285.974 587.54 319.785 598.089C330.748 601.509 340.324 605.344 348.256 609.5C340.324 613.656 330.748 617.491 319.785 620.911C285.974 631.46 239.204 638 187.5 638C135.796 638 89.0257 631.46 55.2153 620.911C44.2524 617.491 34.6757 613.656 26.7442 609.5ZM24.6233 609.5C8.95499 600.952 0 591.052 0 580.5C0 569.948 8.95499 560.048 24.6233 551.5C8.95499 542.952 0 533.052 0 522.5C0 511.948 8.95499 502.048 24.6233 493.5C8.95499 484.952 0 475.052 0 464.5C0 453.948 8.95499 444.048 24.6233 435.5C8.95499 426.952 0 417.052 0 406.5C0 395.948 8.95499 386.048 24.6233 377.5C8.95499 368.952 0 359.052 0 348.5C0 337.948 8.95499 328.048 24.6233 319.5C8.95499 310.952 0 301.052 0 290.5C0 279.948 8.95499 270.048 24.6233 261.5C8.95499 252.952 0 243.052 0 232.5C0 221.948 8.95499 212.048 24.6233 203.5C8.95499 194.952 0 185.052 0 174.5C0 163.948 8.95499 154.048 24.6233 145.5C8.95499 136.952 0 127.052 0 116.5C0 105.948 8.95499 96.0478 24.6233 87.5C8.95499 78.9522 0 69.0524 0 58.5C0 26.1913 83.9466 0 187.5 0C291.053 0 375 26.1913 375 58.5C375 69.0524 366.045 78.9522 350.377 87.5C366.045 96.0478 375 105.948 375 116.5C375 127.052 366.045 136.952 350.377 145.5C366.045 154.048 375 163.948 375 174.5C375 185.052 366.045 194.952 350.377 203.5C366.045 212.048 375 221.948 375 232.5C375 243.052 366.045 252.952 350.377 261.5C366.045 270.048 375 279.948 375 290.5C375 301.052 366.045 310.952 350.377 319.5C366.045 328.048 375 337.948 375 348.5C375 359.052 366.045 368.952 350.377 377.5C366.045 386.048 375 395.948 375 406.5C375 417.052 366.045 426.952 350.377 435.5C366.045 444.048 375 453.948 375 464.5C375 475.052 366.045 484.952 350.377 493.5C366.045 502.048 375 511.948 375 522.5C375 533.052 366.045 542.952 350.377 551.5C366.045 560.048 375 569.948 375 580.5C375 591.052 366.045 600.952 350.377 609.5C366.045 618.048 375 627.948 375 638.5C375 670.809 291.053 697 187.5 697C83.9466 697 0 670.809 0 638.5C0 627.948 8.95499 618.048 24.6233 609.5ZM349.324 610.067C353.194 612.148 356.653 614.307 359.672 616.534C369.055 623.455 374 630.89 374 638.5C374 646.11 369.055 653.545 359.672 660.466C350.309 667.373 336.696 673.635 319.785 678.911C285.974 689.46 239.204 696 187.5 696C135.796 696 89.0257 689.46 55.2153 678.911C38.3042 673.635 24.6915 667.373 15.3283 660.466C5.94531 653.545 1 646.11 1 638.5C1 630.89 5.94531 623.455 15.3283 616.534C18.3466 614.307 21.8065 612.148 25.6761 610.067C58.2379 627.378 118.519 639 187.5 639C256.481 639 316.762 627.378 349.324 610.067ZM349.324 608.933C353.194 606.852 356.653 604.693 359.672 602.466C369.055 595.545 374 588.11 374 580.5C374 572.89 369.055 565.455 359.672 558.534C356.653 556.307 353.194 554.148 349.324 552.067C320.702 567.283 270.664 578.104 212.125 580.5C270.664 582.896 320.702 593.717 349.324 608.933ZM359.672 544.466C356.653 546.693 353.194 548.852 349.324 550.933C320.702 535.717 270.664 524.896 212.125 522.5C270.664 520.104 320.702 509.283 349.324 494.067C353.194 496.148 356.653 498.307 359.672 500.534C369.055 507.455 374 514.89 374 522.5C374 530.11 369.055 537.545 359.672 544.466ZM349.324 492.933C353.194 490.852 356.653 488.693 359.672 486.466C369.055 479.545 374 472.11 374 464.5C374 456.89 369.055 449.455 359.672 442.534C356.653 440.307 353.194 438.148 349.324 436.067C320.702 451.283 270.664 462.104 212.125 464.5C270.664 466.896 320.702 477.717 349.324 492.933ZM359.672 428.466C356.653 430.693 353.194 432.852 349.324 434.933C320.702 419.717 270.664 408.896 212.125 406.5C270.664 404.104 320.702 393.283 349.324 378.067C353.194 380.148 356.653 382.307 359.672 384.534C369.055 391.455 374 398.89 374 406.5C374 414.11 369.055 421.545 359.672 428.466ZM349.324 376.933C353.194 374.852 356.653 372.693 359.672 370.466C369.055 363.545 374 356.11 374 348.5C374 340.89 369.055 333.455 359.672 326.534C356.653 324.307 353.194 322.148 349.324 320.067C320.702 335.283 270.664 346.104 212.125 348.5C270.664 350.896 320.702 361.717 349.324 376.933ZM359.672 312.466C356.653 314.693 353.194 316.852 349.324 318.933C320.702 303.717 270.664 292.896 212.125 290.5C270.664 288.104 320.702 277.283 349.324 262.067C353.194 264.148 356.653 266.307 359.672 268.534C369.055 275.455 374 282.89 374 290.5C374 298.11 369.055 305.545 359.672 312.466ZM349.324 260.933C353.194 258.852 356.653 256.693 359.672 254.466C369.055 247.545 374 240.11 374 232.5C374 224.89 369.055 217.455 359.672 210.534C356.653 208.307 353.194 206.148 349.324 204.067C320.702 219.283 270.664 230.104 212.125 232.5C270.664 234.896 320.702 245.717 349.324 260.933ZM359.672 196.466C356.653 198.693 353.194 200.852 349.324 202.933C320.702 187.717 270.664 176.896 212.125 174.5C270.664 172.104 320.702 161.283 349.324 146.067C353.194 148.148 356.653 150.307 359.672 152.534C369.055 159.455 374 166.89 374 174.5C374 182.11 369.055 189.545 359.672 196.466ZM349.324 144.933C353.194 142.852 356.653 140.693 359.672 138.466C369.055 131.545 374 124.11 374 116.5C374 108.89 369.055 101.455 359.672 94.5339C356.653 92.3074 353.194 90.148 349.324 88.067C320.702 103.283 270.664 114.104 212.125 116.5C270.664 118.896 320.702 129.717 349.324 144.933Z" fill="url(#paint0_linear_102_23)"/>
<defs>
<linearGradient id="paint0_linear_102_23" x1="-4.34039e-06" y1="262" x2="375" y2="262" gradientUnits="userSpaceOnUse">
<stop stop-color="#058999"/>
<stop offset="1" stop-color="#FF827D"/>
</linearGradient>
</defs>
</svg>
