<svg width="31" height="31" viewBox="0 0 31 31" fill="none" xmlns="http://www.w3.org/2000/svg">
<path d="M15.5 9.6875C16.5701 9.6875 17.4375 8.82005 17.4375 7.75C17.4375 6.67995 16.5701 5.8125 15.5 5.8125C14.4299 5.8125 13.5625 6.67995 13.5625 7.75C13.5625 8.82005 14.4299 9.6875 15.5 9.6875Z" fill="black"/>
<path d="M15.5 17.4375C16.5701 17.4375 17.4375 16.5701 17.4375 15.5C17.4375 14.4299 16.5701 13.5625 15.5 13.5625C14.4299 13.5625 13.5625 14.4299 13.5625 15.5C13.5625 16.5701 14.4299 17.4375 15.5 17.4375Z" fill="black"/>
<path d="M15.5 25.1875C16.5701 25.1875 17.4375 24.3201 17.4375 23.25C17.4375 22.1799 16.5701 21.3125 15.5 21.3125C14.4299 21.3125 13.5625 22.1799 13.5625 23.25C13.5625 24.3201 14.4299 25.1875 15.5 25.1875Z" fill="black"/>
</svg>
