<svg width="32" height="32" viewBox="0 0 32 32" fill="none" xmlns="http://www.w3.org/2000/svg">
<path d="M5.2001 26C4.4851 26 3.8728 25.7452 3.3632 25.2356C2.8536 24.726 2.59923 24.1141 2.6001 23.4V7.8C2.6001 7.085 2.8549 6.4727 3.3645 5.9631C3.8741 5.4535 4.48597 5.19913 5.2001 5.2H11.9276C12.2743 5.2 12.6049 5.265 12.9195 5.395C13.2341 5.525 13.5101 5.70917 13.7476 5.9475L15.6001 7.8H26.0001C26.7151 7.8 27.3274 8.0548 27.837 8.5644C28.3466 9.074 28.601 9.68587 28.6001 10.4V23.4C28.6001 24.115 28.3453 24.7273 27.8357 25.2369C27.3261 25.7465 26.7142 26.0009 26.0001 26H5.2001Z" fill="#232323"/>
</svg>
