<svg width="18" height="20" viewBox="0 0 18 20" fill="none" xmlns="http://www.w3.org/2000/svg">
<path d="M2.49968 19.75C1.90384 19.75 1.39359 19.5377 0.968926 19.113C0.54426 18.6883 0.332287 18.1784 0.33301 17.5833V7.83332C0.33301 7.49027 0.409926 7.16527 0.563759 6.85832C0.717593 6.55138 0.929565 6.2986 1.19968 6.09999L7.69968 1.22499C7.89829 1.08055 8.10593 0.972212 8.32259 0.89999C8.53926 0.827767 8.76495 0.791656 8.99968 0.791656C9.2344 0.791656 9.46009 0.827767 9.67676 0.89999C9.89343 0.972212 10.1011 1.08055 10.2997 1.22499L16.7997 6.09999C17.0705 6.2986 17.2828 6.55138 17.4367 6.85832C17.5905 7.16527 17.6671 7.49027 17.6663 7.83332V17.5833C17.6663 18.1792 17.454 18.6894 17.0293 19.1141C16.6047 19.5387 16.0948 19.7507 15.4997 19.75H11.1663V12.1667H6.83301V19.75H2.49968Z" fill="white"/>
</svg>
