<svg width="27" height="27" viewBox="0 0 27 27" fill="none" xmlns="http://www.w3.org/2000/svg">
<path d="M21.5833 11.7917V23.0521C21.5833 23.3735 21.52 23.6919 21.397 23.9889C21.274 24.2859 21.0937 24.5557 20.8664 24.783C20.639 25.0103 20.3692 25.1906 20.0722 25.3137C19.7752 25.4367 19.4569 25.5 19.1354 25.5H4.44792C3.79869 25.5 3.17605 25.2421 2.71698 24.783C2.2579 24.3239 2 23.7013 2 23.0521V8.36458C2 7.71536 2.2579 7.09272 2.71698 6.63364C3.17605 6.17457 3.79869 5.91667 4.44792 5.91667H14.6973M18.6458 2H25.5V8.85417M11.7917 15.7083L25.0104 2.48958" stroke="#232323" stroke-width="2.5" stroke-linecap="round" stroke-linejoin="round"/>
</svg>
