<svg width="37" height="42" viewBox="0 0 37 42" fill="none" xmlns="http://www.w3.org/2000/svg">
<path d="M6.99912 22.4003H5.59912V19.6003H6.99912C7.37042 19.6003 7.72652 19.7478 7.98907 20.0103C8.25162 20.2729 8.39912 20.629 8.39912 21.0003C8.39912 21.3716 8.25162 21.7277 7.98907 21.9902C7.72652 22.2528 7.37042 22.4003 6.99912 22.4003ZM16.7991 28.0003V19.6003H18.1991C18.5704 19.6003 18.9265 19.7478 19.1891 20.0103C19.4516 20.2729 19.5991 20.629 19.5991 21.0003V26.6003C19.5991 26.9716 19.4516 27.3277 19.1891 27.5902C18.9265 27.8528 18.5704 28.0003 18.1991 28.0003H16.7991Z" fill="#FC1414"/>
<path fill-rule="evenodd" clip-rule="evenodd" d="M0 4.2C0 3.08609 0.442499 2.0178 1.23015 1.23015C2.0178 0.442499 3.08609 0 4.2 0L27.1796 0L36.4 9.2204V37.8C36.4 38.9139 35.9575 39.9822 35.1698 40.7698C34.3822 41.5575 33.3139 42 32.2 42H4.2C3.08609 42 2.0178 41.5575 1.23015 40.7698C0.442499 39.9822 0 38.9139 0 37.8V4.2ZM7 16.8H2.8V30.8H5.6V25.2H7C8.11391 25.2 9.18219 24.7575 9.96985 23.9698C10.7575 23.1822 11.2 22.1139 11.2 21C11.2 19.8861 10.7575 18.8178 9.96985 18.0302C9.18219 17.2425 8.11391 16.8 7 16.8ZM18.2 16.8H14V30.8H18.2C19.3139 30.8 20.3822 30.3575 21.1698 29.5698C21.9575 28.7822 22.4 27.7139 22.4 26.6V21C22.4 19.8861 21.9575 18.8178 21.1698 18.0302C20.3822 17.2425 19.3139 16.8 18.2 16.8ZM25.2 30.8V16.8H33.6V19.6H28V22.4H30.8V25.2H28V30.8H25.2Z" fill="#FC1414"/>
</svg>
