<svg width="31" height="27" viewBox="0 0 31 27" fill="none" xmlns="http://www.w3.org/2000/svg">
<path d="M26.647 15.4894L17.7219 24.4161C17.1302 25.0077 16.3277 25.34 15.491 25.34C14.6543 25.34 13.8518 25.0077 13.2601 24.4161L4.33499 15.491C3.5972 14.7597 3.01114 13.8898 2.61044 12.9313C2.20974 11.9729 2.00229 10.9447 2.00002 9.90584C1.99774 8.867 2.20068 7.83793 2.59718 6.87773C2.99368 5.91752 3.57593 5.04509 4.31051 4.31051C5.04509 3.57593 5.91752 2.99368 6.87773 2.59718C7.83793 2.20068 8.867 1.99774 9.90584 2.00002C10.9447 2.00229 11.9729 2.20974 12.9313 2.61044C13.8898 3.01114 14.7597 3.5972 15.491 4.33499C16.9765 2.88645 18.9729 2.08149 21.0478 2.09449C23.1226 2.10749 25.1087 2.9374 26.576 4.40445C28.0433 5.87149 28.8734 7.85754 28.8867 9.93236C28.9 12.0072 28.0954 14.0037 26.647 15.4894Z" fill="#C22525" stroke="#C22525" stroke-width="2.5" stroke-linecap="round" stroke-linejoin="round"/>
</svg>
